<svg width="14" height="14" viewBox="0 0 14 14" fill="none" xmlns="http://www.w3.org/2000/svg">
<path opacity="0.7" fill-rule="evenodd" clip-rule="evenodd" d="M6.87382 0C7.19599 0 7.45715 0.261167 7.45715 0.583333V1.16667H8.04049C8.36266 1.16667 8.62382 1.42784 8.62382 1.75C8.62382 2.07216 8.36266 2.33333 8.04049 2.33333H7.45715V3.57832C8.14974 3.77011 8.69172 4.29777 8.97936 4.97908C9.66723 4.49559 10.3823 4.27637 11.0676 4.30946C12.0172 4.35534 12.8122 4.88333 13.2802 5.66054C14.1811 7.15645 13.8468 9.41856 11.6901 11.2449L12.2235 12.3116C12.6113 13.0873 12.0473 14 11.18 14H2.56768C1.70041 14 1.13633 13.0873 1.52418 12.3116L2.05751 11.2449C-0.0991101 9.41856 -0.43337 7.15645 0.467461 5.66054C0.935498 4.88332 1.73044 4.35533 2.68012 4.30947C3.36536 4.27638 4.08042 4.4956 4.76834 4.9791C5.05594 4.29778 5.5979 3.77011 6.29049 3.57832V2.33333H5.70715C5.38498 2.33333 5.12382 2.07216 5.12382 1.75C5.12382 1.42784 5.38498 1.16667 5.70715 1.16667H6.29049V0.583333C6.29049 0.261167 6.55164 0 6.87382 0ZM4.54798 6.30572C3.86433 5.65339 3.22773 5.45105 2.73639 5.47478C2.20914 5.50024 1.75227 5.78852 1.4669 6.26237C0.925033 7.16222 0.969244 8.90447 2.9889 10.5H5.96598C5.81635 10.1628 5.63747 9.74837 5.45829 9.30667C5.23656 8.76009 5.01126 8.1641 4.84048 7.61734C4.6983 7.16211 4.57843 6.69433 4.54798 6.30572ZM7.78172 10.5H10.7588C12.7784 8.90447 12.8227 7.16222 12.2808 6.26237C11.9954 5.78852 11.5386 5.50024 11.0113 5.47478C10.5199 5.45104 9.88335 5.65338 9.19969 6.30566C9.16924 6.69427 9.04942 7.16211 8.9072 7.61734C8.7364 8.1641 8.51112 8.76009 8.28939 9.30667C8.11019 9.74837 7.93134 10.1628 7.78172 10.5ZM10.5967 11.6667H6.87382H3.15101L2.56768 12.8333H11.18L10.5967 11.6667ZM6.87382 9.66508C6.9801 9.41955 7.09426 9.14923 7.2083 8.86812C7.42408 8.33624 7.63624 7.77321 7.79362 7.2695C7.95672 6.7473 8.04049 6.35057 8.04049 6.125C8.04049 6.10744 8.04025 6.09006 8.03984 6.07279C8.01657 5.17954 7.43399 4.66667 6.87382 4.66667C6.3137 4.66667 5.73113 5.17956 5.70785 6.07279C5.70739 6.09006 5.70715 6.1075 5.70715 6.125C5.70715 6.35057 5.79098 6.7473 5.95408 7.2695C6.1114 7.77321 6.32362 8.33624 6.53939 8.86812C6.65344 9.14923 6.76759 9.41955 6.87382 9.66508Z" fill="white"/>
</svg>