<svg width="10" height="6" viewBox="0 0 10 6" fill="none" xmlns="http://www.w3.org/2000/svg">
<path d="M5 5.27956C4.89473 5.27999 4.79042 5.26203 4.6932 5.22672C4.59597 5.19141 4.50778 5.13946 4.43381 5.07393L0.726854 1.80267C0.629223 1.67093 0.584973 1.51432 0.601198 1.35795C0.617422 1.20158 0.693182 1.0545 0.816333 0.940293C0.939485 0.826083 1.1029 0.751353 1.28038 0.728081C1.45786 0.704808 1.63913 0.734342 1.79514 0.811947L5 3.61589L8.20486 0.811947C8.36087 0.734342 8.54215 0.704808 8.71963 0.728081C8.89711 0.751353 9.06052 0.826083 9.18367 0.940293C9.30682 1.0545 9.38258 1.20158 9.39881 1.35795C9.41503 1.51432 9.37078 1.67093 9.27315 1.80267L5.53415 5.07393C5.39259 5.19957 5.20151 5.27312 5 5.27956Z" fill="white" fill-opacity="0.75"/>
</svg>
